<svg preserveAspectRatio="none" width="100%" height="100%" overflow="visible" style="display: block;" viewBox="0 0 174.335 174.335" fill="none" xmlns="http://www.w3.org/2000/svg">
<g id="mask">
<path d="M71.4719 8.60457C79.4794 -1.53486 94.8557 -1.53485 102.863 8.60458L106.986 13.8248C111.291 19.2761 118.116 22.1033 125.015 21.2928L131.621 20.5166C144.453 19.0091 155.326 29.8818 153.818 42.7136L153.042 49.32C152.232 56.2189 155.059 63.0442 160.51 67.3493L165.731 71.4719C175.87 79.4794 175.87 94.8557 165.73 102.863L160.51 106.986C155.059 111.291 152.232 118.116 153.042 125.015L153.818 131.621C155.326 144.453 144.453 155.326 131.621 153.818L125.015 153.042C118.116 152.232 111.291 155.059 106.986 160.51L102.863 165.731C94.8557 175.87 79.4794 175.87 71.4719 165.73L67.3493 160.51C63.0442 155.059 56.2189 152.232 49.32 153.042L42.7136 153.818C29.8818 155.326 19.0091 144.453 20.5166 131.621L21.2928 125.015C22.1033 118.116 19.2761 111.291 13.8248 106.986L8.60457 102.863C-1.53486 94.8557 -1.53485 79.4794 8.60458 71.4719L13.8248 67.3493C19.2761 63.0442 22.1033 56.2189 21.2928 49.32L20.5166 42.7136C19.0091 29.8818 29.8818 19.0091 42.7136 20.5166L49.32 21.2928C56.2189 22.1033 63.0442 19.2761 67.3493 13.8248L71.4719 8.60457Z" fill="var(--fill-0, #D9D9D9)"/>
<path d="M71.0796 8.29449C79.2873 -2.09817 95.0478 -2.09817 103.255 8.29449L107.378 13.5152C111.576 18.83 118.23 21.5866 124.957 20.7964L131.563 20.0201C144.716 18.4749 155.86 29.6194 154.315 42.772L153.539 49.3785C152.748 56.1047 155.505 62.7591 160.82 66.9566L166.041 71.0796C176.433 79.2873 176.433 95.0478 166.041 103.255L160.82 107.378C155.505 111.576 152.748 118.23 153.539 124.957L154.315 131.563C155.86 144.716 144.716 155.86 131.563 154.315L124.957 153.539C118.23 152.748 111.576 155.505 107.378 160.82L103.255 166.041C95.0478 176.433 79.2873 176.433 71.0796 166.041L66.9566 160.82C62.7591 155.505 56.1047 152.748 49.3785 153.539L42.772 154.315C29.6194 155.86 18.4749 144.716 20.0201 131.563L20.7964 124.957C21.5866 118.23 18.83 111.576 13.5152 107.378L8.29449 103.255C-2.09817 95.0478 -2.09817 79.2873 8.29449 71.0796L13.5152 66.9566C18.83 62.7591 21.5866 56.1047 20.7964 49.3785L20.0201 42.772C18.4749 29.6194 29.6194 18.4749 42.772 20.0201L49.3785 20.7964C56.1047 21.5866 62.7591 18.83 66.9566 13.5152L71.0796 8.29449Z" stroke="var(--stroke-0, #6465E7)" stroke-opacity="0.15"/>
</g>
</svg>
