<svg viewBox="0 0 174.335 174.335" fill="none" xmlns="http://www.w3.org/2000/svg">
  <path
    d="M71.4719 8.60457C79.4794 -1.53486 94.8557 -1.53485 102.863 8.60458L106.986 13.8248C111.291 19.2761 118.116 22.1033 125.015 21.2928L131.621 20.5166C144.453 19.0091 155.326 29.8818 153.818 42.7136L153.042 49.32C152.232 56.2189 155.059 63.0442 160.51 67.3493L165.731 71.4719C175.87 79.4794 175.87 94.8557 165.73 102.863L160.51 106.986C155.059 111.291 152.232 118.116 153.042 125.015L153.818 131.621C155.326 144.453 144.453 155.326 131.621 153.818L125.015 153.042C118.116 152.232 111.291 155.059 106.986 160.51L102.863 165.731C94.8557 175.87 79.4794 175.87 71.4719 165.73L67.3493 160.51C63.0442 155.059 56.2189 152.232 49.32 153.042L42.7136 153.818C29.8818 155.326 19.0091 144.453 20.5166 131.621L21.2928 125.015C22.1033 118.116 19.2761 111.291 13.8248 106.986L8.60457 102.863C-1.53486 94.8557 -1.53485 79.4794 8.60458 71.4719L13.8248 67.3493C19.2761 63.0442 22.1033 56.2189 21.2928 49.32L20.5166 42.7136C19.0091 29.8818 29.8818 19.0091 42.7136 20.5166L49.32 21.2928C56.2189 22.1033 63.0442 19.2761 67.3493 13.8248L71.4719 8.60457Z"
    fill="white"
  />
</svg>
