<svg width="28" height="28" viewBox="0 0 28 28" fill="none" xmlns="http://www.w3.org/2000/svg">
<path d="M13.9952 24C12.6147 24 11.3214 23.7386 10.1151 23.2159C8.90889 22.6996 7.84777 21.9832 6.93179 21.0668C6.0158 20.1504 5.29657 19.0887 4.77407 17.8819C4.25802 16.6751 4 15.3811 4 14C4 12.6189 4.25802 11.3249 4.77407 10.1181C5.29657 8.90481 6.0158 7.84318 6.93179 6.9332C7.84777 6.01678 8.90889 5.30042 10.1151 4.78412C11.3214 4.26137 12.6147 4 13.9952 4C15.3756 4 16.6689 4.26137 17.8752 4.78412C19.0879 5.30042 20.1522 6.01678 21.0682 6.9332C21.9842 7.84318 22.7002 8.90481 23.2163 10.1181C23.7388 11.3249 24 12.6189 24 14C24 15.3811 23.7388 16.6751 23.2163 17.8819C22.7002 19.0887 21.9842 20.1504 21.0682 21.0668C20.1522 21.9832 19.0879 22.6996 17.8752 23.2159C16.6689 23.7386 15.3756 24 13.9952 24ZM13.9855 17.0881C14.0951 17.0881 14.1951 17.0655 14.2854 17.0203C14.3822 16.9687 14.4725 16.9074 14.5564 16.8364L17.8752 13.4966C17.9655 13.4192 18.0268 13.332 18.059 13.2352C18.0977 13.1384 18.1171 13.0384 18.1171 12.9351C18.1171 12.7222 18.0493 12.5447 17.9139 12.4027C17.7784 12.2543 17.6075 12.1801 17.4011 12.1801C17.2914 12.1801 17.1882 12.2026 17.0914 12.2478C16.9947 12.2865 16.9108 12.3446 16.8399 12.4221L16.2109 13.0513L14.6338 14.8519L14.7402 13.1384V8.9758C14.7402 8.74992 14.6692 8.56599 14.5273 8.42401C14.3854 8.27557 14.2048 8.20136 13.9855 8.20136C13.7533 8.20136 13.5662 8.27557 13.4243 8.42401C13.2824 8.56599 13.2114 8.74992 13.2114 8.9758V13.1384L13.3372 14.8519L11.731 13.0416L11.1408 12.4221C11.0763 12.3446 10.9989 12.2865 10.9086 12.2478C10.8183 12.2026 10.715 12.1801 10.5989 12.1801C10.3796 12.1801 10.2022 12.251 10.0668 12.393C9.9313 12.535 9.86357 12.7157 9.86357 12.9351C9.86357 13.0255 9.88292 13.1223 9.92163 13.2256C9.96678 13.3288 10.0281 13.4192 10.1055 13.4966L13.4146 16.8364C13.492 16.9138 13.5791 16.9752 13.6759 17.0203C13.7726 17.0655 13.8758 17.0881 13.9855 17.0881ZM10.3183 19.2856H17.672C17.8849 19.2856 18.059 19.2146 18.1945 19.0726C18.3364 18.9242 18.4074 18.7402 18.4074 18.5208C18.4074 18.3143 18.3364 18.14 18.1945 17.9981C18.059 17.8561 17.8849 17.7851 17.672 17.7851H10.3183C10.1055 17.7851 9.92808 17.8561 9.78616 17.9981C9.64425 18.14 9.57329 18.3143 9.57329 18.5208C9.57329 18.7402 9.64425 18.9242 9.78616 19.0726C9.92808 19.2146 10.1055 19.2856 10.3183 19.2856Z" fill="black"/>
</svg>
