<svg width="22" height="22" viewBox="0 0 22 22" fill="none" xmlns="http://www.w3.org/2000/svg">
  <path
    d="M10.6948 21.3896C9.21826 21.3896 7.83398 21.1094 6.54199 20.5488C5.25 19.9951 4.11182 19.2261 3.12744 18.2417C2.1499 17.2642 1.38428 16.1328 0.830566 14.8477C0.276855 13.5557 0 12.1714 0 10.6948C0 9.21826 0.276855 7.83398 0.830566 6.54199C1.38428 5.25 2.1499 4.11523 3.12744 3.1377C4.11182 2.15332 5.25 1.38428 6.54199 0.830566C7.83398 0.276855 9.21826 0 10.6948 0C12.1714 0 13.5557 0.276855 14.8477 0.830566C16.1396 1.38428 17.2744 2.15332 18.252 3.1377C19.2295 4.11523 19.9951 5.25 20.5488 6.54199C21.1094 7.83398 21.3896 9.21826 21.3896 10.6948C21.3896 12.1714 21.1094 13.5557 20.5488 14.8477C19.9951 16.1328 19.2295 17.2642 18.252 18.2417C17.2744 19.2261 16.1396 19.9951 14.8477 20.5488C13.5557 21.1094 12.1714 21.3896 10.6948 21.3896ZM16.0269 11.9355C16.0269 11.1289 15.8491 10.4248 15.4937 9.82324C15.145 9.22168 14.6494 8.75342 14.0068 8.41846C13.3711 8.0835 12.6294 7.91602 11.7817 7.91602H8.75684L7.81348 7.97754L8.49023 7.46484L9.51562 6.50098C9.7002 6.34375 9.79248 6.14551 9.79248 5.90625C9.79248 5.66016 9.70361 5.45166 9.52588 5.28076C9.35498 5.10986 9.15332 5.02441 8.9209 5.02441C8.68164 5.02441 8.47656 5.10645 8.30566 5.27051L5.53711 8.08008C5.3457 8.29199 5.25 8.521 5.25 8.76709C5.25 9.02686 5.3457 9.25586 5.53711 9.4541L8.31592 12.2739C8.47998 12.438 8.68848 12.52 8.94141 12.52C9.16699 12.52 9.36523 12.4346 9.53613 12.2637C9.70703 12.0859 9.79248 11.8774 9.79248 11.6382C9.79248 11.4058 9.7002 11.2041 9.51562 11.0332L8.34668 9.9668L7.82373 9.60791L8.75684 9.65918H11.7817C12.52 9.65918 13.1113 9.87109 13.5557 10.2949C14 10.7119 14.2222 11.2588 14.2222 11.9355C14.2222 12.6533 13.9966 13.231 13.5454 13.6685C13.1011 14.106 12.5166 14.3247 11.792 14.3247H10.3154C10.0215 14.3247 9.78564 14.4067 9.60791 14.5708C9.43701 14.7349 9.35156 14.9468 9.35156 15.2065C9.35156 15.48 9.44043 15.7021 9.61816 15.873C9.7959 16.0371 10.0317 16.1191 10.3257 16.1191H11.792C12.6328 16.1191 13.3711 15.9448 14.0068 15.5962C14.6494 15.2476 15.145 14.7622 15.4937 14.1401C15.8491 13.5112 16.0269 12.7764 16.0269 11.9355Z"
    fill="currentColor"
  />
</svg>
