<svg width="28" height="28" viewBox="0 0 28 28" fill="none" xmlns="http://www.w3.org/2000/svg">
<path d="M14.2441 23.8027C12.9811 23.8027 11.8027 23.5684 10.709 23.0996C9.62174 22.6309 8.66797 21.9831 7.84766 21.1562C7.02734 20.3294 6.38607 19.3691 5.92383 18.2754C5.4681 17.1751 5.24023 16 5.24023 14.75C5.24023 13.5456 5.47135 12.3965 5.93359 11.3027C6.39583 10.2025 7.03711 9.22917 7.85742 8.38281C8.67773 7.52995 9.63477 6.87891 10.7285 6.42969C11.028 6.3125 11.2917 6.27018 11.5195 6.30273C11.7539 6.33529 11.9362 6.42969 12.0664 6.58594C12.3398 6.89193 12.3496 7.3151 12.0957 7.85547C11.9395 8.20052 11.806 8.64323 11.6953 9.18359C11.5911 9.72396 11.5391 10.2839 11.5391 10.8633C11.5391 12.2695 11.8158 13.4772 12.3691 14.4863C12.9225 15.4889 13.7168 16.2572 14.752 16.791C15.7871 17.3249 17.0241 17.5918 18.4629 17.5918C18.9967 17.5918 19.4915 17.5527 19.9473 17.4746C20.403 17.39 20.8132 17.2663 21.1777 17.1035C21.4186 16.9993 21.6465 16.9603 21.8613 16.9863C22.0762 17.0059 22.2487 17.0775 22.3789 17.2012C22.5156 17.3314 22.597 17.5104 22.623 17.7383C22.6556 17.9661 22.6068 18.2298 22.4766 18.5293C21.9948 19.623 21.3275 20.5638 20.4746 21.3516C19.6283 22.1393 18.668 22.7448 17.5938 23.168C16.5195 23.5911 15.403 23.8027 14.2441 23.8027ZM14.2344 21.6836C14.944 21.6836 15.6113 21.5892 16.2363 21.4004C16.8613 21.2116 17.431 20.9479 17.9453 20.6094C18.4661 20.2643 18.9219 19.8639 19.3125 19.4082C19.1432 19.4408 18.9414 19.4733 18.707 19.5059C18.4727 19.5319 18.2253 19.5449 17.9648 19.5449C16.2526 19.5449 14.7682 19.2129 13.5117 18.5488C12.2617 17.8783 11.2949 16.931 10.6113 15.707C9.92773 14.4831 9.58594 13.0312 9.58594 11.3516C9.58594 11.026 9.60547 10.7038 9.64453 10.3848C9.68359 10.0592 9.73893 9.76628 9.81055 9.50586C9.30273 9.95508 8.86328 10.4564 8.49219 11.0098C8.12109 11.5632 7.83789 12.1589 7.64258 12.7969C7.44727 13.4349 7.34961 14.099 7.34961 14.7891C7.34961 15.7526 7.52214 16.651 7.86719 17.4844C8.21224 18.3177 8.69727 19.0501 9.32227 19.6816C9.94727 20.3132 10.6764 20.8047 11.5098 21.1562C12.3496 21.5078 13.2578 21.6836 14.2344 21.6836ZM21.8027 13.9492C21.6986 13.9492 21.6107 13.9167 21.5391 13.8516C21.4674 13.7799 21.4219 13.6921 21.4023 13.5879C21.3242 12.9499 21.2396 12.4518 21.1484 12.0938C21.0638 11.7292 20.9271 11.459 20.7383 11.2832C20.5495 11.1009 20.263 10.9609 19.8789 10.8633C19.5013 10.7591 18.9772 10.6387 18.3066 10.502C18.0723 10.4564 17.9551 10.3262 17.9551 10.1113C17.9551 10.0007 17.9876 9.90951 18.0527 9.83789C18.1243 9.75977 18.209 9.71745 18.3066 9.71094C18.9772 9.61328 19.5013 9.52214 19.8789 9.4375C20.263 9.34635 20.5495 9.20638 20.7383 9.01758C20.9271 8.82878 21.0638 8.54883 21.1484 8.17773C21.2396 7.80013 21.3242 7.28581 21.4023 6.63477C21.4349 6.38737 21.5684 6.26367 21.8027 6.26367C22.0436 6.26367 22.1771 6.39062 22.2031 6.64453C22.2812 7.28255 22.3626 7.7806 22.4473 8.13867C22.5384 8.49674 22.6784 8.76693 22.8672 8.94922C23.0625 9.125 23.3522 9.26172 23.7363 9.35938C24.1204 9.45703 24.6445 9.57422 25.3086 9.71094C25.543 9.75651 25.6602 9.88997 25.6602 10.1113C25.6602 10.3327 25.5267 10.4629 25.2598 10.502C24.6022 10.6061 24.0846 10.707 23.707 10.8047C23.3359 10.9023 23.056 11.0456 22.8672 11.2344C22.6784 11.4167 22.5384 11.6901 22.4473 12.0547C22.3626 12.4193 22.2812 12.9238 22.2031 13.5684C22.1771 13.8223 22.0436 13.9492 21.8027 13.9492ZM17.1055 7.12305C16.9688 7.12305 16.8841 7.05143 16.8516 6.9082C16.7799 6.50456 16.7148 6.19206 16.6562 5.9707C16.6042 5.74284 16.5195 5.57357 16.4023 5.46289C16.2917 5.3457 16.1191 5.25456 15.8848 5.18945C15.6504 5.11784 15.3249 5.03971 14.9082 4.95508C14.7585 4.92253 14.6836 4.83789 14.6836 4.70117C14.6836 4.56445 14.7585 4.48307 14.9082 4.45703C15.3314 4.38542 15.6569 4.31706 15.8848 4.25195C16.1126 4.18034 16.2819 4.08919 16.3926 3.97852C16.5098 3.86133 16.5977 3.6888 16.6562 3.46094C16.7148 3.23307 16.7799 2.91732 16.8516 2.51367C16.8841 2.36393 16.9688 2.28906 17.1055 2.28906C17.2422 2.28906 17.3203 2.36393 17.3398 2.51367C17.418 2.91081 17.4863 3.22331 17.5449 3.45117C17.6035 3.67253 17.6882 3.8418 17.7988 3.95898C17.916 4.06966 18.0885 4.16081 18.3164 4.23242C18.5508 4.29753 18.8796 4.3724 19.3027 4.45703C19.446 4.48958 19.5176 4.57096 19.5176 4.70117C19.5176 4.83789 19.4427 4.92253 19.293 4.95508C18.8763 5.0332 18.5508 5.10482 18.3164 5.16992C18.082 5.23503 17.9062 5.32617 17.7891 5.44336C17.6784 5.55404 17.5938 5.72331 17.5352 5.95117C17.4766 6.17904 17.4115 6.49479 17.3398 6.89844C17.3203 7.04818 17.2422 7.12305 17.1055 7.12305Z" fill="currentColor"/>
</svg>
