<svg width="28" height="28" viewBox="0 0 28 28" fill="none" xmlns="http://www.w3.org/2000/svg">
<path d="M14 6.97656C13.707 6.97656 13.4531 6.8724 13.2383 6.66406C13.0299 6.44922 12.9258 6.19531 12.9258 5.90234V3.92969C12.9258 3.63672 13.0299 3.38281 13.2383 3.16797C13.4531 2.95312 13.707 2.8457 14 2.8457C14.293 2.8457 14.5436 2.95312 14.752 3.16797C14.9668 3.38281 15.0742 3.63672 15.0742 3.92969V5.90234C15.0742 6.19531 14.9668 6.44922 14.752 6.66406C14.5436 6.8724 14.293 6.97656 14 6.97656ZM18.9219 9.04688C18.7201 8.83854 18.6159 8.58464 18.6094 8.28516C18.6094 7.98568 18.7103 7.73503 18.9121 7.5332L20.3281 6.11719C20.5299 5.91536 20.7806 5.81445 21.0801 5.81445C21.3796 5.80794 21.6302 5.9056 21.832 6.10742C22.0404 6.31576 22.1445 6.57292 22.1445 6.87891C22.151 7.17839 22.0501 7.42904 21.8418 7.63086L20.4453 9.03711C20.237 9.24544 19.9831 9.34961 19.6836 9.34961C19.3841 9.34961 19.1302 9.2487 18.9219 9.04688ZM20.9629 13.9492C20.9629 13.6562 21.0671 13.4056 21.2754 13.1973C21.4902 12.9824 21.7441 12.875 22.0371 12.875H24.0195C24.306 12.875 24.5534 12.9824 24.7617 13.1973C24.9766 13.4056 25.084 13.6562 25.084 13.9492C25.084 14.2357 24.9766 14.4863 24.7617 14.7012C24.5534 14.9095 24.306 15.0137 24.0195 15.0137H22.0371C21.7441 15.0137 21.4902 14.9095 21.2754 14.7012C21.0671 14.4863 20.9629 14.2357 20.9629 13.9492ZM18.9121 18.8711C19.1204 18.6693 19.3743 18.5684 19.6738 18.5684C19.9733 18.5618 20.224 18.6595 20.4258 18.8613L21.8418 20.2676C22.0501 20.4694 22.1543 20.7201 22.1543 21.0195C22.1543 21.319 22.0534 21.5729 21.8516 21.7812C21.6432 21.9766 21.3893 22.0775 21.0898 22.084C20.7904 22.0905 20.5397 21.9928 20.3379 21.791L18.9219 20.375C18.7201 20.1732 18.6159 19.9258 18.6094 19.6328C18.6094 19.3333 18.7103 19.0794 18.9121 18.8711ZM14 20.9219C14.293 20.9219 14.5436 21.026 14.752 21.2344C14.9668 21.4492 15.0742 21.6999 15.0742 21.9863V23.9688C15.0742 24.2617 14.9668 24.5124 14.752 24.7207C14.5436 24.9355 14.293 25.043 14 25.043C13.707 25.043 13.4531 24.9355 13.2383 24.7207C13.0299 24.5124 12.9258 24.2617 12.9258 23.9688V21.9863C12.9258 21.6999 13.0299 21.4492 13.2383 21.2344C13.4531 21.026 13.707 20.9219 14 20.9219ZM9.08789 18.8711C9.2832 19.0794 9.3776 19.3333 9.37109 19.6328C9.37109 19.9258 9.27018 20.1732 9.06836 20.375L7.66211 21.791C7.45378 21.9863 7.19987 22.0807 6.90039 22.0742C6.60091 22.0742 6.34701 21.9733 6.13867 21.7715C5.93685 21.5632 5.83594 21.3092 5.83594 21.0098C5.84245 20.7103 5.94987 20.4596 6.1582 20.2578L7.56445 18.8613C7.76628 18.6595 8.01693 18.5618 8.31641 18.5684C8.6224 18.5684 8.87956 18.6693 9.08789 18.8711ZM7.03711 13.9492C7.03711 14.2357 6.92969 14.4863 6.71484 14.7012C6.50651 14.9095 6.2526 15.0137 5.95312 15.0137H3.98047C3.69401 15.0137 3.44336 14.9095 3.22852 14.7012C3.02018 14.4863 2.91602 14.2357 2.91602 13.9492C2.91602 13.6562 3.02018 13.4056 3.22852 13.1973C3.44336 12.9824 3.69401 12.875 3.98047 12.875H5.95312C6.2526 12.875 6.50651 12.9824 6.71484 13.1973C6.92969 13.4056 7.03711 13.6562 7.03711 13.9492ZM9.06836 9.04688C8.86003 9.2487 8.60612 9.34961 8.30664 9.34961C8.00716 9.3431 7.75651 9.23893 7.55469 9.03711L6.14844 7.62109C5.95312 7.42578 5.85547 7.17839 5.85547 6.87891C5.85547 6.57292 5.95964 6.31576 6.16797 6.10742C6.36979 5.9056 6.62044 5.80794 6.91992 5.81445C7.22591 5.81445 7.47982 5.91536 7.68164 6.11719L9.08789 7.5332C9.2832 7.72852 9.3776 7.97917 9.37109 8.28516C9.37109 8.59115 9.27018 8.84505 9.06836 9.04688ZM14 19.1445C13.2839 19.1445 12.61 19.0111 11.9785 18.7441C11.3535 18.4707 10.8001 18.0964 10.3184 17.6211C9.8431 17.1458 9.46875 16.5957 9.19531 15.9707C8.92839 15.3392 8.79492 14.6654 8.79492 13.9492C8.79492 13.2266 8.92839 12.5527 9.19531 11.9277C9.46875 11.3027 9.8431 10.7526 10.3184 10.2773C10.8001 9.80208 11.3535 9.42773 11.9785 9.1543C12.61 8.88086 13.2839 8.74414 14 8.74414C14.7161 8.74414 15.3867 8.88086 16.0117 9.1543C16.6432 9.42773 17.1966 9.80208 17.6719 10.2773C18.1536 10.7526 18.528 11.3027 18.7949 11.9277C19.0618 12.5527 19.1953 13.2266 19.1953 13.9492C19.1953 14.6654 19.0618 15.3392 18.7949 15.9707C18.528 16.5957 18.1536 17.1458 17.6719 17.6211C17.1966 18.0964 16.6432 18.4707 16.0117 18.7441C15.3867 19.0111 14.7161 19.1445 14 19.1445ZM14 17.1035C14.5859 17.1035 15.1165 16.9635 15.5918 16.6836C16.0671 16.3971 16.4447 16.0163 16.7246 15.541C17.0111 15.0658 17.1543 14.5352 17.1543 13.9492C17.1543 13.3633 17.0111 12.8327 16.7246 12.3574C16.4447 11.8822 16.0671 11.5013 15.5918 11.2148C15.1165 10.9284 14.5859 10.7852 14 10.7852C13.4206 10.7852 12.89 10.9284 12.4082 11.2148C11.9329 11.5013 11.5521 11.8822 11.2656 12.3574C10.9792 12.8327 10.8359 13.3633 10.8359 13.9492C10.8359 14.5352 10.9792 15.0658 11.2656 15.541C11.5521 16.0163 11.9329 16.3971 12.4082 16.6836C12.89 16.9635 13.4206 17.1035 14 17.1035Z" fill="currentColor"/>
</svg>
