<svg width="100" height="100" viewBox="0 0 100 100" fill="none" xmlns="http://www.w3.org/2000/svg">
<rect width="100" height="100" fill="#FCFF4B"/>
<path d="M16.4593 31.2H29.4193C33.2353 31.2 36.5833 31.92 39.4633 33.36C42.3433 34.8 44.5753 36.942 46.1593 39.786C47.7793 42.594 48.5893 46.032 48.5893 50.1C48.5893 54.168 47.8153 57.624 46.2673 60.468C44.7193 63.276 42.5233 65.4 39.6793 66.84C36.8353 68.28 33.5053 69 29.6893 69H16.4593V31.2ZM20.6173 62.52H28.8793C31.4353 62.52 33.6313 62.124 35.4673 61.332C37.3033 60.54 38.7253 59.226 39.7333 57.39C40.7773 55.554 41.2993 53.124 41.2993 50.1C41.2993 45.636 40.2013 42.45 38.0053 40.542C35.8453 38.634 32.8033 37.68 28.8793 37.68H20.6173L23.7493 34.494V65.652L20.6173 62.52ZM62.0732 48.804L78.7052 31.2H87.7232L72.0632 47.724L68.8772 51.072L62.0732 58.254V48.804ZM55.3772 31.2H62.6672V69H55.3772V31.2ZM67.1492 51.666L72.3872 46.158L88.0472 69H79.0292L67.1492 51.666Z" fill="black"/>
</svg>
